<svg width="34" height="34" viewBox="0 0 34 34" fill="none" xmlns="http://www.w3.org/2000/svg">
<path d="M22.6654 12.75C22.6654 7.27318 18.2255 2.83334 12.7487 2.83334C7.27188 2.83334 2.83203 7.27318 2.83203 12.75C2.83203 18.2268 7.27188 22.6667 12.7487 22.6667" stroke="white" stroke-width="3"/>
<path d="M22.6667 12.75H21.25C17.2431 12.75 15.2397 12.75 13.9948 13.9948C12.75 15.2397 12.75 17.2431 12.75 21.25V22.6667C12.75 26.6736 12.75 28.677 13.9948 29.9218C15.2397 31.1667 17.2431 31.1667 21.25 31.1667H22.6667C26.6736 31.1667 28.677 31.1667 29.9218 29.9218C31.1667 28.677 31.1667 26.6736 31.1667 22.6667V21.25C31.1667 17.2431 31.1667 15.2397 29.9218 13.9948C28.677 12.75 26.6736 12.75 22.6667 12.75Z" stroke="white" stroke-width="3"/>
</svg>
