<svg width="120" height="120" fill="none" xmlns="http://www.w3.org/2000/svg"> <path d="M59.35 106.65c-26.4 0-47.9-21.5-47.9-47.9s21.5-47.9 47.9-47.9 47.9 21.5 47.9 47.9-21.45 47.9-47.9 47.9Zm0-92.45c-24.55 0-44.55 20-44.55 44.55 0 24.55 20 44.55 44.55 44.55 24.55 0 44.55-20 44.55-44.55 0-24.55-19.95-44.55-44.55-44.55Z" fill="#fff"></path> <path d="M59.35 106.65c-26.4 0-47.9-21.5-47.9-47.9s21.5-47.9 47.9-47.9 47.9 21.5 47.9 47.9-21.45 47.9-47.9 47.9Zm0-92.45c-24.55 0-44.55 20-44.55 44.55 0 24.55 20 44.55 44.55 44.55 24.55 0 44.55-20 44.55-44.55 0-24.55-19.95-44.55-44.55-44.55Z" fill="#fff"></path> <path d="M59.35 25.6c-.95 0-1.7-.75-1.7-1.7V4.4c0-.95.75-1.7 1.7-1.7s1.7.75 1.7 1.7v19.5c0 .95-.75 1.7-1.7 1.7ZM59.35 114.75c-.95 0-1.7-.75-1.7-1.7v-20.1c0-.95.75-1.7 1.7-1.7s1.7.75 1.7 1.7v20.1c0 .95-.75 1.7-1.7 1.7ZM113.7 60.45h-8.1c-.95 0-1.7-.75-1.7-1.7s.75-1.7 1.7-1.7h8.1c.95 0 1.7.75 1.7 1.7s-.75 1.7-1.7 1.7ZM13.15 60.45h-8.1c-.95 0-1.7-.75-1.7-1.7s.75-1.7 1.7-1.7h8.1c.95 0 1.7.75 1.7 1.7s-.8 1.7-1.7 1.7ZM66.2 62.4c-.05 2.6-1.9 4.2-4.55 4.7l-.05 3.25c-.8.15-1.6.2-2.4.2-.55 0-1.15-.05-1.7-.15l.05-3.4c-1.95-.4-3.8-1.3-5.15-2.5l1.55-3c1.7 1.55 4.05 2.55 5.8 2.6 1.55.05 2.45-.5 2.5-1.55.05-3.1-8.8-1.45-8.7-7.35.05-2.35 1.7-4 4.3-4.55L58 47c.55-.05 1.1-.1 1.65-.1.85 0 1.65.1 2.45.3l-.1 3.45c1.6.3 3.15.9 4.35 1.7l-1.5 3.05c-1.75-1.05-3.8-1.75-5.1-1.8-1.25 0-2.1.4-2.15 1.3-.05 3.1 8.75 1.6 8.6 7.5Z" fill="#fff"></path> <path d="M59.35 81.7c-15.7 0-30.3-8.5-38.05-22.1l-.45-.85.45-.85c7.75-13.65 22.35-22.15 38.05-22.15 15.7 0 30.3 8.5 38.05 22.15l.45.85-.45.85c-7.75 13.65-22.35 22.1-38.05 22.1ZM24.7 58.75c7.3 12.1 20.5 19.6 34.65 19.6 14.15 0 27.35-7.5 34.65-19.6-7.3-12.1-20.45-19.6-34.65-19.6-14.15 0-27.35 7.5-34.65 19.6Z" fill="#fff"></path> <path d="M59.35 75.5C50.1 75.5 42.6 68 42.6 58.75S50.1 42 59.35 42 76.1 49.5 76.1 58.75 68.6 75.5 59.35 75.5Zm0-30.15c-7.4 0-13.4 6-13.4 13.4s6 13.4 13.4 13.4 13.4-6 13.4-13.4-6-13.4-13.4-13.4ZM41.95 91.5a1.95 1.95 0 1 0 0-3.9 1.95 1.95 0 0 0 0 3.9ZM76.4 91.5a1.95 1.95 0 1 0 0-3.9 1.95 1.95 0 0 0 0 3.9ZM41.95 31.4a1.95 1.95 0 1 0 0-3.9 1.95 1.95 0 0 0 0 3.9ZM79.05 29.45c0-1.1-.9-1.95-1.95-1.95-1.1 0-1.95.9-1.95 1.95 0 1.1.9 1.95 1.95 1.95 1.1.05 1.95-.85 1.95-1.95ZM106.25 24.2c-.95 0-1.7-.75-1.7-1.7v-8.95H95.6c-.95 0-1.7-.75-1.7-1.7s.75-1.7 1.7-1.7h12.35V22.5c0 .95-.75 1.7-1.7 1.7ZM107.95 107.3H95.6c-.95 0-1.7-.75-1.7-1.7s.75-1.7 1.7-1.7h8.95V95c0-.95.75-1.7 1.7-1.7s1.7.75 1.7 1.7v12.3ZM23.15 107.3H10.8V95c0-.95.75-1.7 1.7-1.7s1.7.75 1.7 1.7v8.95h8.95c.95 0 1.7.75 1.7 1.7s-.8 1.65-1.7 1.65ZM12.5 24.2c-.95 0-1.7-.75-1.7-1.7V10.2h12.3c.95 0 1.7.75 1.7 1.7s-.75 1.7-1.7 1.7h-8.9v8.9c0 .95-.75 1.7-1.7 1.7Z" fill="#fff"></path> </svg>