<svg width="120" height="120" fill="none" xmlns="http://www.w3.org/2000/svg"> <path d="M56.15 115.7a1.97 1.97 0 0 1-1.8-2.15c.1-1.1 1.05-1.9 2.15-1.8 1.1.1 1.9 1.05 1.8 2.15-.1 1.05-1 1.85-2.05 1.8h-.1Zm4.8-1.8c-.05-1.1.8-2 1.9-2.1 1.1-.05 2.05.8 2.1 1.9.05 1.1-.8 2-1.9 2.1h-.15c-1.05-.05-1.9-.85-1.95-1.9Zm-11.6.75c-1.05-.25-1.75-1.3-1.5-2.35s1.3-1.75 2.35-1.5 1.75 1.3 1.5 2.35c-.2.95-1.05 1.6-2 1.55-.1 0-.2 0-.35-.05Zm18.2-1.25c-.2-1.1.5-2.1 1.6-2.3 1.1-.2 2.1.5 2.3 1.6.2 1.1-.5 2.1-1.6 2.3-.15 0-.25.05-.4.05-.9-.05-1.75-.7-1.9-1.65Zm-24.8-.65c-1.05-.4-1.55-1.5-1.2-2.55.4-1.05 1.5-1.55 2.55-1.2 1.05.35 1.55 1.5 1.2 2.55-.3.8-1.1 1.35-1.9 1.3-.25 0-.45-.05-.65-.1Zm31.3-.75c-.35-1.05.25-2.15 1.25-2.5 1.05-.35 2.15.25 2.5 1.25.35 1.05-.25 2.15-1.25 2.5-.2.05-.45.1-.65.1-.85.05-1.6-.5-1.85-1.35Zm-37.6-2.05c-.95-.5-1.35-1.7-.85-2.7.5-.95 1.7-1.35 2.7-.85.95.5 1.35 1.7.85 2.7-.35.7-1.05 1.1-1.8 1.05-.35.05-.6-.05-.9-.2Zm43.8-.15c-.45-1-.05-2.15.95-2.65 1-.45 2.15-.05 2.65.95s.05 2.15-.9 2.65c-.3.15-.6.2-.9.2-.75-.05-1.45-.45-1.8-1.15Zm-49.65-3.4c-.9-.65-1.1-1.9-.5-2.75.65-.9 1.9-1.1 2.75-.5.9.65 1.1 1.9.5 2.8-.4.55-1.05.85-1.65.85-.4-.05-.8-.2-1.1-.4Zm55.55.35c-.6-.9-.35-2.15.6-2.75a2 2 0 0 1 2.75.55 2 2 0 0 1-.55 2.75c-.35.25-.75.35-1.15.35-.65 0-1.25-.3-1.65-.9Zm-60.9-4.7c-.8-.75-.85-2-.1-2.8.75-.8 2-.85 2.8-.1.8.75.85 2 .1 2.8-.4.45-.95.65-1.5.65-.5-.05-.95-.2-1.3-.55Zm66.35.9c-.7-.8-.65-2.1.2-2.8.85-.7 2.1-.65 2.8.2.7.8.6 2.1-.2 2.8-.4.35-.85.5-1.35.45-.55.05-1.05-.2-1.45-.65Zm-71.1-5.9c-.7-.85-.6-2.1.25-2.8.85-.7 2.1-.6 2.8.25.7.85.6 2.1-.25 2.8-.4.3-.85.45-1.3.45-.55 0-1.1-.25-1.5-.7Zm76 1.45c-.85-.75-.9-2-.2-2.8.7-.8 2-.9 2.8-.15.85.7.9 2 .2 2.8-.4.45-.95.7-1.55.65-.45 0-.9-.15-1.25-.5Zm-80-7.05c-.6-.95-.3-2.15.65-2.75.95-.6 2.15-.3 2.75.65.6.95.3 2.15-.65 2.75-.35.2-.7.3-1.1.3-.7 0-1.3-.35-1.65-.95Zm84.25 2a2 2 0 0 1-.55-2.75 2 2 0 0 1 2.75-.55 2 2 0 0 1 .55 2.75c-.4.6-1.05.9-1.7.9-.4-.05-.75-.15-1.05-.35Zm-87.5-8.05c-.45-1 0-2.15 1-2.65 1-.45 2.15 0 2.65 1 .45 1 0 2.2-1 2.65-.3.15-.55.2-.85.2-.8-.05-1.5-.5-1.8-1.2Zm-2.45-6.45c-.3-1.05.3-2.15 1.35-2.5 1.05-.3 2.15.3 2.5 1.35.3 1.05-.3 2.15-1.35 2.45-.2.05-.4.1-.6.1-.85 0-1.65-.55-1.9-1.4Zm-1.55-6.7c-.15-1.1.6-2.1 1.65-2.3 1.1-.15 2.1.55 2.3 1.65.15 1.1-.6 2.1-1.65 2.25-.1 0-.25.05-.35.05-.95 0-1.75-.7-1.95-1.65Zm-.6-6.85c-.05-1.1.85-2 1.95-2.05 1.1-.05 2 .85 2.05 1.95 0 1.1-.85 2-1.95 2.05h-.1c-1.05-.05-1.9-.9-1.95-1.95Zm2.05-4.7c-1.1-.1-1.9-1.1-1.75-2.2.1-1.1 1.1-1.9 2.2-1.75 1.1.1 1.9 1.1 1.75 2.2-.1 1.05-1 1.8-2 1.75h-.2Zm.85-6.55c-1.05-.25-1.7-1.35-1.45-2.4.25-1.05 1.35-1.7 2.4-1.45 1.05.25 1.7 1.35 1.45 2.4-.2.9-1.05 1.55-1.95 1.5-.15 0-.3 0-.45-.05Zm1.75-6.4c-1-.4-1.55-1.55-1.1-2.6.4-1 1.55-1.55 2.55-1.1 1 .4 1.55 1.55 1.1 2.55-.3.8-1.05 1.3-1.9 1.25-.2.05-.45 0-.65-.1Zm2.55-6.1c-.95-.55-1.3-1.75-.75-2.7.5-.95 1.75-1.3 2.7-.75.95.5 1.3 1.75.8 2.7-.35.65-1.05 1.05-1.8 1-.3 0-.65-.1-.95-.25Zm86.85 1.7c-.45-1-.05-2.15.95-2.65 1-.45 2.15-.05 2.65.95.45 1 .05 2.15-.95 2.65-.35.15-.7.2-1.05.2-.65-.05-1.3-.45-1.6-1.15Zm-83.45-7.4c-.9-.65-1.05-1.9-.4-2.8.65-.9 1.9-1.05 2.8-.4.85.65 1.05 1.9.4 2.8-.4.55-1 .8-1.65.8-.45 0-.8-.15-1.15-.4Zm80.4 1.85c-.6-.9-.3-2.15.6-2.75.9-.6 2.15-.3 2.75.6.6.9.3 2.15-.6 2.75-.4.25-.85.35-1.25.3-.6-.05-1.15-.35-1.5-.9Zm-3.8-5.1c-.7-.85-.6-2.1.25-2.8.85-.7 2.1-.6 2.8.25.7.85.6 2.1-.25 2.8-.45.35-.95.5-1.5.45-.45-.05-.95-.3-1.3-.7Zm-50.5-16.2c-.3-1.05.35-2.15 1.4-2.45 1.05-.3 2.15.35 2.45 1.4.3 1.05-.35 2.15-1.4 2.45-.2.05-.4.1-.55.1-.9-.05-1.7-.65-1.9-1.5Zm27.55 1.35c-1.05-.3-1.7-1.4-1.4-2.45.3-1.05 1.4-1.7 2.45-1.4 1.05.3 1.7 1.35 1.4 2.45-.25.9-1.05 1.5-1.95 1.45-.15 0-.35 0-.5-.05Z" fill="#fff"></path> <path d="m36.451 13.278-12.274 6.525 3.873 7.285 12.274-6.525-3.873-7.285ZM79.458 20.569l12.274 6.525 3.872-7.285-12.273-6.525-3.873 7.285ZM90.6 64.85c0 16.95-13.75 30.7-30.7 30.7S29.2 81.8 29.2 64.85s13.75-30.7 30.7-30.7 30.7 13.75 30.7 30.7Z" fill="inherit"></path> <path d="M90.5 38c-2-2.25-4.2-4.35-6.65-6.1-5.5-4-12.1-6.7-19.25-7.5-1.55-.2-3.1-.3-4.7-.3s-3.15.1-4.7.3c-7.15.8-13.7 3.5-19.25 7.5-2.45 1.8-4.7 3.85-6.65 6.1-6.3 7.15-10.15 16.55-10.15 26.85 0 22.5 18.25 40.75 40.75 40.75s40.75-18.2 40.75-40.75C100.65 54.6 96.8 45.2 90.5 38ZM59.9 95.6c-16.95 0-30.7-13.75-30.7-30.7s13.75-30.7 30.7-30.7 30.7 13.75 30.7 30.7-13.75 30.7-30.7 30.7Z" fill="inherit"></path> <path d="M59.9 34.15V24.1c-1.6 0-3.15.1-4.7.3-7.15.8-13.7 3.5-19.25 7.5-2.45 1.8-4.7 3.85-6.65 6.1-6.3 7.15-10.1 16.6-10.1 26.85 0 22.5 18.25 40.75 40.75 40.75v-10c-16.95 0-30.7-13.75-30.7-30.75-.1-16.95 13.65-30.7 30.65-30.7Z" fill="inherit"></path> <path d="M59.9 107.3c-23.4 0-42.4-19.05-42.4-42.4 0-10.3 3.75-20.25 10.55-28 1.35-1.55 2.8-2.95 4.3-4.2.8-.7 1.7-1.45 2.65-2.1 5.2-3.8 11.3-6.4 17.65-7.5.8-.15 1.6-.25 2.4-.35 3.2-.4 6.5-.4 9.75 0 7.2.8 14.15 3.55 20.05 7.8 2.5 1.8 4.85 3.95 6.95 6.35 6.8 7.7 10.55 17.65 10.55 27.95-.05 23.4-19.05 42.45-42.45 42.45Zm0-81.5c-1.5 0-3 .1-4.45.3-.75.1-1.5.2-2.2.3-5.85 1-11.45 3.4-16.25 6.9-.85.6-1.65 1.3-2.45 1.95-1.4 1.15-2.7 2.45-3.95 3.9-6.25 7.1-9.7 16.25-9.7 25.75 0 21.55 17.5 39.05 39.05 39.05C81.5 103.95 99 86.45 99 64.9c0-9.5-3.45-18.65-9.7-25.75-1.9-2.2-4.05-4.15-6.4-5.85-5.4-3.95-11.8-6.45-18.45-7.2-1.6-.2-3.1-.3-4.55-.3Z" fill="#fff"></path> <path d="M59.9 97.25c-17.85 0-32.4-14.55-32.4-32.4 0-17.85 14.55-32.4 32.4-32.4 17.85 0 32.4 14.55 32.4 32.4-.05 17.9-14.55 32.4-32.4 32.4Zm0-61.4c-16 0-29.05 13-29.05 29.05 0 16 13 29.05 29.05 29.05S88.95 80.9 88.95 64.9C88.9 48.85 75.9 35.85 59.9 35.85Z" fill="#fff"></path> <path d="M37.9 66.55h-6.7c-.95 0-1.7-.75-1.7-1.7s.75-1.7 1.7-1.7h6.7c.95 0 1.7.75 1.7 1.7s-.8 1.7-1.7 1.7ZM59.9 95.25c-.95 0-1.7-.75-1.7-1.7v-6.7c0-.95.75-1.7 1.7-1.7s1.7.75 1.7 1.7v6.7c-.05.95-.8 1.7-1.7 1.7ZM59.9 43.55c-.95 0-1.7-.75-1.7-1.7v-6.7c0-.95.75-1.7 1.7-1.7s1.7.75 1.7 1.7v6.7c-.05.95-.8 1.7-1.7 1.7ZM60.05 66.65c-.65 0-1.25-.35-1.55-1l-9.55-21c-.4-.85 0-1.85.85-2.2.85-.4 1.85 0 2.2.85l9.55 21.05c.4.85 0 1.85-.85 2.2-.2.05-.4.1-.65.1Z" fill="#fff"></path> <path d="M45.9 79.6c-.45 0-.9-.2-1.25-.55-.65-.7-.6-1.75.1-2.35L58.9 63.75c.7-.65 1.75-.6 2.35.1.65.7.6 1.75-.1 2.35L47 79.15c-.3.3-.7.45-1.1.45ZM59.9 18.7c-4.45 0-8.1-3.65-8.1-8.1 0-4.45 3.65-8.1 8.1-8.1 4.45 0 8.1 3.65 8.1 8.1 0 4.45-3.65 8.1-8.1 8.1Zm0-12.8c-2.6 0-4.7 2.1-4.7 4.7s2.1 4.7 4.7 4.7 4.7-2.1 4.7-4.7-2.1-4.7-4.7-4.7Z" fill="#fff"></path> <path d="M59.9 25.8c-.95 0-1.7-.75-1.7-1.7v-6.8c0-.95.75-1.7 1.7-1.7s1.7.75 1.7 1.7v6.85c-.05.9-.8 1.65-1.7 1.65Z" fill="#fff"></path> <path d="M59.9 69.15a4.3 4.3 0 1 0 0-8.6 4.3 4.3 0 0 0 0 8.6Z" fill="inherit"></path> <path d="M59.9 70.85c-1.55 0-3.05-.6-4.2-1.75a5.945 5.945 0 0 1 0-8.45 5.945 5.945 0 0 1 8.45 0 5.945 5.945 0 0 1 0 8.45c-1.2 1.15-2.75 1.75-4.25 1.75Zm0-8.6c-.65 0-1.35.25-1.85.75-1 1-1 2.65 0 3.7 1 1 2.65 1 3.7 0 1-1 1-2.65 0-3.7-.55-.5-1.2-.75-1.85-.75Z" fill="#fff"></path> <path d="M101.683 84.685c10.209-3.993 15.249-15.506 11.256-25.716-3.992-10.21-15.505-15.25-25.715-11.257-10.21 3.993-15.25 15.506-11.257 25.716 3.993 10.21 15.506 15.25 25.716 11.257Z" fill="inherit"></path> <path d="M102.75 70.55c-.05 3.15-2.25 5.1-5.45 5.75l-.05 3.95c-.95.2-1.9.3-2.9.25-.7 0-1.4-.05-2.05-.15l.05-4.15c-2.35-.5-4.6-1.55-6.25-2.95l1.85-3.65C90 71.45 92.9 72.65 95 72.7c1.85 0 3-.65 3-1.9.05-3.75-10.65-1.7-10.6-8.8.05-2.85 2.05-4.85 5.15-5.55l.05-4.5c.65-.1 1.3-.1 2-.1 1 0 2 .15 2.95.35l-.05 4.2c1.95.35 3.85 1.05 5.25 2L101 62.1c-2.1-1.3-4.6-2.1-6.2-2.1-1.5 0-2.55.55-2.55 1.6-.1 3.7 10.6 1.75 10.5 8.95Z" fill="#fff"></path> <path d="M94.45 87.75c-2.95 0-5.85-.6-8.65-1.8-10.85-4.75-15.85-17.5-11.1-28.35 2.3-5.25 6.5-9.3 11.9-11.4 5.35-2.1 11.2-2 16.45.35 10.85 4.75 15.85 17.5 11.1 28.35-2.3 5.25-6.55 9.3-11.9 11.4-2.5.95-5.15 1.45-7.8 1.45ZM94.5 48c-7 0-13.7 4.05-16.65 10.9-4 9.2.2 19.9 9.35 23.95 4.45 1.95 9.4 2.05 13.9.3 4.5-1.75 8.1-5.2 10.05-9.65 4-9.2-.2-19.9-9.35-23.95C99.4 48.5 96.9 48 94.5 48ZM27.4 29.35 21.9 19.1 37.15 11l5.45 10.25-15.2 8.1Zm-.95-8.85 2.3 4.35 9.3-4.95-2.3-4.35-9.3 4.95Z" fill="#fff"></path> <path d="M37.55 32.3c-.6 0-1.2-.35-1.5-.9l-3.5-6.7c-.45-.8-.1-1.85.7-2.25.8-.45 1.85-.1 2.25.7l3.5 6.7c.45.8.1 1.85-.7 2.25-.2.15-.45.2-.75.2ZM92.4 29.35l-15.25-8.1L82.65 11l15.25 8.1-5.5 10.25Zm-10.7-9.5L91 24.8l2.3-4.35-9.3-4.9-2.3 4.3Z" fill="#fff"></path> <path d="M82.2 32.3c-.25 0-.55-.05-.8-.2-.8-.45-1.15-1.45-.7-2.25l3.5-6.7c.45-.8 1.45-1.15 2.25-.7.8.45 1.15 1.45.7 2.25l-3.5 6.7c-.25.6-.85.9-1.45.9Z" fill="#fff"></path> </svg>