<svg width="120" height="120" fill="none" xmlns="http://www.w3.org/2000/svg"> <path d="M100.05 14.1H19.8c-5.6 0-10.15 4.55-10.15 10.15V91.4c0 5.6 4.55 10.15 10.15 10.15h80.25c5.6 0 10.15-4.55 10.15-10.15V24.25c0-5.6-4.55-10.15-10.15-10.15Z" fill="inherit"></path> <path d="M22.134 89.156h75.55v-62.7h-75.55v62.7Z" fill="inherit"></path> <path d="M110.2 84.65v6.7c0 5.6-4.55 10.15-10.15 10.15H19.8c-5.6 0-10.15-4.55-10.15-10.15v-6.7H110.2ZM92.87 84.336v-53.05h-65.9v53.05h65.9Z" fill="inherit"></path> <path d="M100.05 103.2H19.8C13.3 103.2 8 97.9 8 91.4V24.25c0-6.5 5.3-11.8 11.8-11.8h80.25c6.5 0 11.8 5.3 11.8 11.8V91.4c0 6.5-5.3 11.8-11.8 11.8ZM19.8 15.75c-4.65 0-8.45 3.8-8.45 8.45v67.15c0 4.65 3.8 8.45 8.45 8.45h80.25c4.65 0 8.45-3.8 8.45-8.45v-67.1c0-4.65-3.8-8.45-8.45-8.45H19.8v-.05Z" fill="#fff"></path> <path d="M99.35 90.85h-78.9V24.8h78.9v66.05Zm-75.5-3.4H96v-59.3H23.85v59.3Z" fill="#fff"></path> <path d="M18.1 34.5h9.05c2.1 0 3.75 1.7 3.75 3.75 0 2.1-1.7 3.75-3.75 3.75H18.1v-7.5ZM18.1 73.55h9.05c2.1 0 3.75 1.7 3.75 3.75 0 2.1-1.7 3.75-3.75 3.75H18.1v-7.5Z" fill="inherit"></path> <path d="M27.15 43.7H16.4V32.8h10.75c3 0 5.45 2.45 5.45 5.45.05 3-2.4 5.45-5.45 5.45Zm-7.35-3.35h7.4c1.15 0 2.1-.95 2.1-2.1 0-1.15-.95-2.1-2.1-2.1h-7.4v4.2ZM27.15 82.8H16.4V71.9h10.75c3 0 5.45 2.45 5.45 5.45s-2.4 5.45-5.45 5.45Zm-7.35-3.35h7.4c1.15 0 2.1-.95 2.1-2.1 0-1.15-.95-2.1-2.1-2.1h-7.4v4.2ZM44.6 101.5H21.85c0 3.5 2.85 6.3 6.3 6.3h10.1c3.55.05 6.35-2.8 6.35-6.3ZM97.95 101.5H75.2c0 3.5 2.85 6.3 6.3 6.3h10.1c3.55.05 6.35-2.8 6.35-6.3Z" fill="#fff"></path> <path d="M54.345 70.096c6.792-3.008 9.859-10.953 6.85-17.744-3.008-6.792-10.953-9.859-17.745-6.85-6.791 3.008-9.858 10.952-6.85 17.744 3.009 6.792 10.953 9.859 17.745 6.85Z" fill="inherit"></path> <path d="M48.9 72.95c-3.65 0-7.15-1.3-9.9-3.7-3.05-2.65-4.9-6.35-5.15-10.35-.3-4.05 1-7.95 3.7-11 2.65-3.05 6.35-4.9 10.35-5.15 4.05-.3 7.95 1 11 3.7 3.05 2.65 4.9 6.35 5.15 10.35.6 8.35-5.7 15.6-14.05 16.15h-1.1Zm0-26.95c-.3 0-.55 0-.85.05-3.15.2-6 1.65-8.05 4.05-2.05 2.4-3.1 5.4-2.85 8.55.2 3.15 1.65 6 4.05 8.05 2.4 2.05 5.4 3.1 8.55 2.85 6.5-.45 11.4-6.1 10.95-12.6-.2-3.15-1.65-6-4.05-8.05-2.2-1.85-4.9-2.9-7.75-2.9Z" fill="#fff"></path> <path d="M50.072 62.758a5.1 5.1 0 1 0-2.344-9.927 5.1 5.1 0 0 0 2.344 9.927ZM47.8 67.55c-.65-.05-1.15-.65-1.05-1.3.05-.65.65-1.15 1.3-1.05.65.05 1.15.65 1.05 1.3-.05.6-.6 1.05-1.2 1.05h-.1Zm2.55-1.15c-.2-.65.15-1.3.8-1.5.65-.2 1.3.15 1.5.8.2.65-.15 1.3-.8 1.5-.1.05-.25.05-.35.05-.55 0-1-.35-1.15-.85Zm-6.45-.15c-.55-.35-.75-1.05-.4-1.65.35-.55 1.05-.75 1.65-.4.6.35.75 1.05.4 1.65-.2.35-.65.6-1.05.6-.15 0-.4-.1-.6-.2Zm9.8-1.2c-.45-.5-.4-1.25.1-1.7.5-.45 1.25-.4 1.7.1.45.5.4 1.25-.1 1.7-.25.2-.5.3-.8.3-.35 0-.65-.1-.9-.4ZM40.9 63.5c-.4-.55-.25-1.3.3-1.7.55-.4 1.3-.25 1.65.3.4.55.25 1.3-.3 1.7-.2.15-.45.25-.7.25-.35-.05-.7-.2-.95-.55Zm15.35-1c-.6-.3-.9-1-.6-1.6.3-.6 1-.85 1.6-.6.6.3.85 1 .6 1.6-.2.45-.65.7-1.1.7-.2 0-.35-.05-.5-.1ZM39.3 59.8c-.15-.65.3-1.3.95-1.4.65-.15 1.3.3 1.4.95.15.65-.3 1.3-.95 1.4h-.25c-.55 0-1.05-.4-1.15-.95Zm18.2-.7c-.65 0-1.2-.55-1.2-1.2v-.1c0-.65.55-1.2 1.2-1.2.65 0 1.2.55 1.2 1.2v.1c0 .65-.55 1.2-1.2 1.2Zm-17.3-1.95a1.206 1.206 0 1 1 .55-2.35c.65.15 1.05.8.9 1.45-.1.55-.6.95-1.15.95-.1-.05-.2-.05-.3-.05Zm15.45-2.35c-.25-.6 0-1.3.6-1.6.6-.25 1.3 0 1.6.6.3.6 0 1.3-.6 1.6-.15.05-.35.1-.5.1-.45 0-.9-.25-1.1-.7Zm-14.4-1.15c-.55-.4-.65-1.15-.25-1.65.4-.55 1.15-.65 1.7-.25s.65 1.15.25 1.7c-.25.35-.6.5-.95.5-.3-.05-.55-.1-.75-.3Zm13.15-1.9c-.5-.45-.55-1.2-.1-1.7.45-.5 1.2-.55 1.7-.1.5.45.55 1.2.1 1.7-.25.25-.55.4-.9.4-.3.05-.6-.1-.8-.3Zm-10.8-.8c-.35-.6-.15-1.3.45-1.65.55-.35 1.3-.15 1.65.45.35.6.15 1.3-.45 1.65-.2.1-.4.15-.6.15-.45 0-.85-.25-1.05-.6Zm7.6-.2c-.65-.2-.95-.9-.75-1.5.2-.65.9-.95 1.55-.75.65.2.95.9.75 1.5-.15.5-.65.85-1.15.85-.15-.05-.25-.05-.4-.1Zm-4.35-1.4c-.05-.65.4-1.25 1.05-1.3.65-.05 1.25.4 1.3 1.05.05.65-.4 1.25-1.1 1.3H48c-.6.05-1.1-.4-1.15-1.05Z" fill="#fff"></path> <path d="m54.3 50.05-3.6 3.7 1.65 1.75 3.75-3.8-1.8-1.65Z" fill="#fff"></path> <path d="M84.065 44.86a5.75 5.75 0 1 0-8.131-8.132 5.75 5.75 0 0 0 8.131 8.132ZM84.075 79.655a5.75 5.75 0 1 0-8.131-8.132 5.75 5.75 0 0 0 8.131 8.132Z" fill="inherit"></path> <path d="M80 48.25c-4.1 0-7.45-3.35-7.45-7.45s3.35-7.45 7.45-7.45 7.45 3.35 7.45 7.45c-.05 4.1-3.35 7.45-7.45 7.45Zm0-11.5c-2.25 0-4.05 1.85-4.05 4.05 0 2.25 1.85 4.05 4.05 4.05 2.25 0 4.05-1.85 4.05-4.05 0-2.25-1.8-4.05-4.05-4.05ZM80 83c-4.1 0-7.45-3.35-7.45-7.45S75.9 68.1 80 68.1s7.45 3.35 7.45 7.45C87.4 79.7 84.1 83 80 83Zm0-11.5c-2.25 0-4.05 1.85-4.05 4.05 0 2.25 1.85 4.05 4.05 4.05 2.25 0 4.05-1.85 4.05-4.05 0-2.2-1.8-4.05-4.05-4.05Z" fill="#fff"></path> <path d="M80 77.25c-.95 0-1.7-.75-1.7-1.7V40.8c0-.95.75-1.7 1.7-1.7s1.7.75 1.7 1.7v34.8c-.05.9-.8 1.65-1.7 1.65ZM23.8 103.2c-.95 0-1.7-.75-1.7-1.7v-5c0-.95.75-1.7 1.7-1.7s1.7.75 1.7 1.7v5c-.05.95-.8 1.7-1.7 1.7ZM32.85 103.2c-.95 0-1.7-.75-1.7-1.7v-5c0-.95.75-1.7 1.7-1.7s1.7.75 1.7 1.7v5c-.05.95-.8 1.7-1.7 1.7ZM41.85 103.2c-.95 0-1.7-.75-1.7-1.7v-5c0-.95.75-1.7 1.7-1.7s1.7.75 1.7 1.7v5c0 .95-.75 1.7-1.7 1.7ZM50.9 103.2c-.95 0-1.7-.75-1.7-1.7v-5c0-.95.75-1.7 1.7-1.7s1.7.75 1.7 1.7v5c-.05.95-.8 1.7-1.7 1.7ZM59.9 103.2c-.95 0-1.7-.75-1.7-1.7v-5c0-.95.75-1.7 1.7-1.7s1.7.75 1.7 1.7v5c0 .95-.75 1.7-1.7 1.7ZM68.95 103.2c-.95 0-1.7-.75-1.7-1.7v-5c0-.95.75-1.7 1.7-1.7s1.7.75 1.7 1.7v5c0 .95-.75 1.7-1.7 1.7ZM78 103.2c-.95 0-1.7-.75-1.7-1.7v-5c0-.95.75-1.7 1.7-1.7s1.7.75 1.7 1.7v5c-.05.95-.8 1.7-1.7 1.7ZM87 103.2c-.95 0-1.7-.75-1.7-1.7v-5c0-.95.75-1.7 1.7-1.7s1.7.75 1.7 1.7v5c0 .95-.75 1.7-1.7 1.7ZM96.05 103.2c-.95 0-1.7-.75-1.7-1.7v-5c0-.95.75-1.7 1.7-1.7s1.7.75 1.7 1.7v5c-.05.95-.8 1.7-1.7 1.7Z" fill="#fff"></path> </svg>