<svg width="120" height="120" fill="green" xmlns="http://www.w3.org/2000/svg"> <path d="M117.45 34.05h-101V70.8h101V34.05Z" fill="inherit"></path> <path d="M103.45 18.9h-101v38.45h101V18.9Z" fill="inherit"></path> <path d="M110.25 27.45h-101v36.5h101v-36.5Z" fill="inherit"></path> <path d="M98.427 52.355v-28.45h-91v28.45h91Z" fill="inherit"></path> <path d="M58.1 14.15c-14.5-3.35-30.6 8.35-30.6 25.3 0 23.05 28.7 35.4 45.2 16.9C85.3 42 78.3 18.2 58.1 14.15Zm9.1 36.65c-6.4 7.7-17.85 8.8-25.55 2.4-7.7-6.4-8.8-17.85-2.4-25.6 6.4-7.7 17.85-8.8 25.6-2.35 7.7 6.4 8.8 17.85 2.35 25.55Z" fill="inherit"></path> <path d="M119.25 72.25H14.65v-10H45.3c.95 0 1.75.75 1.75 1.7s-.7 1.7-1.6 1.7H18v3.25h97.9V35.75h-3.7v29.9H61.3c-.95 0-1.7-.75-1.7-1.7s.7-1.7 1.65-1.7h47.6v-29.9h10.45v39.9h-.05Z" fill="#fff"></path> <path d="M112.15 65.6H61.3c-.95 0-1.7-.75-1.7-1.7s.75-1.7 1.7-1.7h47.55V29.1h-5.35c-.95 0-1.7-.75-1.7-1.7s.75-1.7 1.7-1.7h8.75v39.9h-.1ZM45.4 65.6H7.55v-8.25c0-.95.75-1.7 1.7-1.7s1.7.75 1.7 1.7v4.9H45.4c.95 0 1.7.75 1.7 1.7-.05.9-.8 1.65-1.7 1.65Z" fill="#fff"></path> <path d="M105.1 59.05H79.05c-.95 0-1.7-.75-1.7-1.7s.75-1.7 1.7-1.7h22.7V20.6H76.6c-.95 0-1.7-.75-1.7-1.7s.75-1.7 1.7-1.7h28.5v41.85ZM26.9 59.05H5.05c-.95 0-1.7-.75-1.7-1.7s.75-1.7 1.7-1.7H26.9c.95 0 1.7.75 1.7 1.7s-.8 1.7-1.7 1.7Z" fill="#fff"></path> <path d="M9.25 59.05H.75v-41.8H30.4c.95 0 1.7.75 1.7 1.7s-.75 1.7-1.7 1.7H4.1v35.1h5.1c.95 0 1.7.75 1.7 1.7s-.75 1.6-1.65 1.6Z" fill="#fff"></path> <path d="M68.656 48.879c5.347-8.478 2.809-19.686-5.67-25.033-8.478-5.346-19.685-2.808-25.032 5.67-5.347 8.479-2.808 19.686 5.67 25.033 8.478 5.347 19.686 2.808 25.032-5.67Z" fill="inherit"></path> <path d="M60.85 43.25c-.05 2.9-2.1 4.65-5.05 5.2l-.05 3.6c-.85.15-1.75.25-2.7.25-.65 0-1.25-.05-1.85-.15l.05-3.8c-2.15-.45-4.2-1.45-5.7-2.75l1.7-3.35c1.85 1.7 4.5 2.85 6.45 2.85 1.7.05 2.75-.6 2.75-1.7.05-3.45-9.75-1.6-9.6-8.1.05-2.6 1.9-4.45 4.75-5.05l.1-4.1c.6-.05 1.2-.1 1.85-.1.95 0 1.85.15 2.7.35l-.1 3.85c1.8.35 3.5 1 4.8 1.9l-1.65 3.4c-1.9-1.2-4.2-1.95-5.65-2-1.4-.05-2.35.45-2.35 1.45-.1 3.35 9.7 1.65 9.55 8.25Z" fill="#fff"></path> <path d="M53.25 59.05c-4.6 0-9.05-1.6-12.65-4.55-8.4-7-9.6-19.5-2.6-27.95 7-8.4 19.5-9.6 27.95-2.6 8.4 7 9.6 19.5 2.6 27.95-3.4 4.1-8.15 6.6-13.45 7.1-.6 0-1.2.05-1.85.05Zm.05-36.35c-4.75 0-9.45 2.05-12.7 5.95-5.8 7-4.85 17.4 2.15 23.2 3.4 2.8 7.7 4.15 12.05 3.75 4.4-.4 8.35-2.5 11.15-5.9 2.8-3.4 4.15-7.65 3.75-12.05-.4-4.4-2.5-8.35-5.9-11.15-3.05-2.55-6.75-3.8-10.5-3.8Z" fill="#fff"></path> <path d="m83 74.65-9.85 6.4-5.35-8.25c1.85-.8 3.65-1.75 5.4-2.9 1.6-1.05 3.15-2.2 4.5-3.45l5.3 8.2ZM86.428 72.436l-16.76 10.911 12.33 18.939 16.76-10.912-12.33-18.938Z" fill="inherit"></path> <path d="M106.55 108.65c-.55 2.5-2 4.85-4.3 6.35-4.6 3-10.85 1.7-13.85-2.95l-6.4-9.8 16.8-10.9 6.4 9.85a9.871 9.871 0 0 1 1.35 7.45ZM89.3 33.7C85.65 11.2 63-2.1 41.85 4.85 38 6.15 34.35 8 30.55 11c-.6.5-1.2 1-1.75 1.5 0-.25-3.75 3.95-3.95 4.15-.4.5-.8 1.05-1.2 1.6-.35.55-.75 1.1-1.1 1.65-9.15 14.55-6.9 33 4.65 44.9 10.45 10.75 26.55 14.05 40.4 8.15.05 0 .15-.05.2-.1 2.05-.85 3.75-1.85 5.4-2.9 1.65-1.05 3.15-2.15 4.5-3.45.2-.15.35-.3.5-.45 6.7-6.25 10.6-14.6 11.4-23.3.25-3 .15-6.05-.3-9.05ZM72.75 56.3c-11.8 13.3-32 11.15-41.05-2.8-6.85-10.5-5-24.15 3.65-32.5 1.15-1.15 2.45-2.2 3.85-3.1 18.45-12 42.45 3.3 39.6 24.9-.6 5.1-2.9 9.95-6.05 13.5Z" fill="inherit"></path> <path d="M96.8 118.3c-3.85 0-7.6-1.85-9.8-5.3l-7.3-11.25L99.3 89l7.3 11.25c1.7 2.6 2.25 5.75 1.6 8.8-.65 3.05-2.45 5.7-5.05 7.4a11.717 11.717 0 0 1-6.35 1.85Zm-12.45-15.55 5.5 8.4c2.5 3.85 7.7 4.95 11.55 2.45 1.85-1.2 3.1-3.1 3.6-5.25.45-2.15.05-4.4-1.15-6.25l-5.5-8.4-14 9.05Z" fill="#fff"></path> <path d="M81.5 104.55 67.35 82.8l19.6-12.75L101.1 91.8l-19.6 12.75ZM72 83.8l10.5 16.1 13.95-9.1-10.5-16.1L72 83.8Z" fill="#fff"></path> <path d="M72.65 83.4 65.3 72.05l1.85-.8c1.75-.75 3.4-1.65 5.15-2.75 1.65-1.1 3.05-2.15 4.25-3.3L78 63.85l7.3 11.25-12.65 8.3Zm-2.4-9.85 3.4 5.2 7.05-4.6L77.35 69c-.95.8-2.05 1.55-3.25 2.35-1.3.85-2.55 1.6-3.85 2.2Z" fill="#fff"></path> <path d="M53.35 77.5c-10.1 0-20.15-4-27.4-11.55-12.15-12.5-14.25-32-5.1-46.55v-1.2h.75c.1-.15.2-.3.35-.5v-1.15h.85l.6-.75.1-.15c.15-.2 1.35-1.55 2.05-2.3 1.1-1.2 1.75-1.9 2.3-2.3.5-.45 1.05-.9 1.6-1.4l.5-.4c3.2-2.55 7.5-4.85 11.35-6.05l.15-.05C51.6-.3 63.35 1 72.9 6.7c9.8 5.85 16.2 15.3 18 26.65.5 3.1.6 6.3.3 9.45-.85 9.35-5.1 18-11.95 24.4-.15.15-.3.3-.5.45-1.35 1.25-2.9 2.45-4.75 3.65l-.45.25c-1.65 1.05-3.6 2.1-5.25 2.75l-.35.15c-4.55 2.1-9.6 3.05-14.6 3.05Zm-29.9-55.9c-8.05 13.2-6.05 30.75 4.9 42.05C38.3 73.9 53.8 77 66.9 71.4c.15-.05.25-.1.35-.15 1.55-.65 3.5-1.7 5-2.7l.45-.3c1.5-1 2.75-1.95 3.85-3l.45-.45a34.426 34.426 0 0 0 10.9-22.25c.25-2.9.15-5.8-.25-8.6C86 23.6 80.15 15 71.25 9.65c-8.8-5.25-19.55-6.45-28.8-3.2l-.3.1c-3.6 1.2-7.6 3.4-10.5 5.75l-.45.4c-.45.35-.85.7-1.25 1.05l-.8.7c-.9.95-2.35 2.6-2.85 3.15l-.1.15c-.4.5-.75 1-1.1 1.5l-.5.7-.3.45-.15.25c-.05.05-.05.1-.1.15l-.6.8Zm29.9 45.25c-15.15 0-27.45-12.3-27.45-27.45 0-15.15 12.3-27.45 27.45-27.45 15.15 0 27.45 12.3 27.45 27.45-.05 15.15-12.35 27.45-27.45 27.45Zm0-51.5c-13.3 0-24.1 10.8-24.1 24.1s10.8 24.1 24.1 24.1 24.1-10.8 24.1-24.1c-.05-13.3-10.85-24.1-24.1-24.1ZM96.6 102.4a3.03 3.03 0 0 0-3.6 2.35 3.03 3.03 0 0 0 2.35 3.6c1.65.35 3.25-.7 3.6-2.35a3.03 3.03 0 0 0-2.35-3.6ZM55.85 110.05c-.8 0-1.5-.55-1.65-1.35l-2.75-14c-.2-.9.4-1.8 1.35-1.95.9-.2 1.8.4 1.95 1.35l2.75 14c.2.9-.4 1.8-1.35 1.95h-.3ZM51.9 89.9c-.8 0-1.5-.55-1.65-1.35l-.5-2.45c-.2-.9.4-1.8 1.35-1.95.9-.2 1.8.4 1.95 1.35l.5 2.45c.2.9-.4 1.8-1.35 1.95h-.3ZM12.75 96.05c-.45 0-.9-.2-1.25-.55-.65-.7-.6-1.75.1-2.35l10.45-9.7c.7-.65 1.75-.6 2.35.1.65.7.6 1.75-.1 2.35l-10.45 9.7c-.3.3-.7.45-1.1.45Zm15.05-14c-.45 0-.9-.2-1.25-.55-.65-.7-.6-1.75.1-2.35l1.85-1.7c.7-.65 1.75-.6 2.35.1.65.7.6 1.75-.1 2.35l-1.85 1.7c-.3.3-.7.45-1.1.45ZM31.6 109.15c-.15 0-.35-.05-.5-.1a1.71 1.71 0 0 1-1.1-2.1l4.5-13.9c.3-.9 1.25-1.35 2.1-1.1.9.3 1.35 1.25 1.1 2.1l-4.5 13.9c-.25.75-.9 1.2-1.6 1.2Zm6.45-19.8c-.15 0-.35-.05-.5-.1a1.71 1.71 0 0 1-1.1-2.1l.75-2.4c.3-.9 1.25-1.35 2.1-1.1.9.3 1.35 1.25 1.1 2.1l-.75 2.4c-.25.75-.9 1.2-1.6 1.2Z" fill="#fff"></path>
                </svg>