<svg width="125" height="27" viewBox="0 0 125 27" fill="none" xmlns="http://www.w3.org/2000/svg">
<path d="M42.098 11.216C42.098 11.852 41.948 12.452 41.648 13.016C41.348 13.58 40.868 14.042 40.208 14.402C39.548 14.75 38.702 14.924 37.67 14.924H35.402V20H33.35V7.49H37.67C38.63 7.49 39.44 7.658 40.1 7.994C40.772 8.318 41.27 8.762 41.594 9.326C41.93 9.89 42.098 10.52 42.098 11.216ZM37.67 13.25C38.45 13.25 39.032 13.076 39.416 12.728C39.8 12.368 39.992 11.864 39.992 11.216C39.992 9.848 39.218 9.164 37.67 9.164H35.402V13.25H37.67ZM46.1071 6.68V20H44.0551V6.68H46.1071ZM48.1172 14.996C48.1172 14 48.3212 13.118 48.7292 12.35C49.1492 11.582 49.7132 10.988 50.4212 10.568C51.1412 10.136 51.9332 9.92 52.7972 9.92C53.5772 9.92 54.2552 10.076 54.8312 10.388C55.4192 10.688 55.8872 11.066 56.2352 11.522V10.082H58.3052V20H56.2352V18.524C55.8872 18.992 55.4132 19.382 54.8132 19.694C54.2132 20.006 53.5292 20.162 52.7612 20.162C51.9092 20.162 51.1292 19.946 50.4212 19.514C49.7132 19.07 49.1492 18.458 48.7292 17.678C48.3212 16.886 48.1172 15.992 48.1172 14.996ZM56.2352 15.032C56.2352 14.348 56.0912 13.754 55.8032 13.25C55.5272 12.746 55.1612 12.362 54.7052 12.098C54.2492 11.834 53.7572 11.702 53.2292 11.702C52.7012 11.702 52.2092 11.834 51.7532 12.098C51.2972 12.35 50.9252 12.728 50.6372 13.232C50.3612 13.724 50.2232 14.312 50.2232 14.996C50.2232 15.68 50.3612 16.28 50.6372 16.796C50.9252 17.312 51.2972 17.708 51.7532 17.984C52.2212 18.248 52.7132 18.38 53.2292 18.38C53.7572 18.38 54.2492 18.248 54.7052 17.984C55.1612 17.72 55.5272 17.336 55.8032 16.832C56.0912 16.316 56.2352 15.716 56.2352 15.032ZM66.0044 9.92C66.7844 9.92 67.4804 10.082 68.0924 10.406C68.7164 10.73 69.2024 11.21 69.5504 11.846C69.8984 12.482 70.0724 13.25 70.0724 14.15V20H68.0384V14.456C68.0384 13.568 67.8164 12.89 67.3724 12.422C66.9284 11.942 66.3224 11.702 65.5544 11.702C64.7864 11.702 64.1744 11.942 63.7184 12.422C63.2744 12.89 63.0524 13.568 63.0524 14.456V20H61.0004V10.082H63.0524V11.216C63.3884 10.808 63.8144 10.49 64.3304 10.262C64.8584 10.034 65.4164 9.92 66.0044 9.92ZM76.2898 20.162C75.5098 20.162 74.8078 20.024 74.1838 19.748C73.5718 19.46 73.0858 19.076 72.7258 18.596C72.3658 18.104 72.1738 17.558 72.1498 16.958H74.2738C74.3098 17.378 74.5078 17.732 74.8678 18.02C75.2398 18.296 75.7018 18.434 76.2538 18.434C76.8298 18.434 77.2738 18.326 77.5858 18.11C77.9098 17.882 78.0718 17.594 78.0718 17.246C78.0718 16.874 77.8918 16.598 77.5318 16.418C77.1838 16.238 76.6258 16.04 75.8578 15.824C75.1138 15.62 74.5078 15.422 74.0398 15.23C73.5718 15.038 73.1638 14.744 72.8158 14.348C72.4798 13.952 72.3118 13.43 72.3118 12.782C72.3118 12.254 72.4678 11.774 72.7798 11.342C73.0918 10.898 73.5358 10.55 74.1118 10.298C74.6998 10.046 75.3718 9.92 76.1278 9.92C77.2558 9.92 78.1618 10.208 78.8458 10.784C79.5418 11.348 79.9138 12.122 79.9618 13.106H77.9098C77.8738 12.662 77.6938 12.308 77.3698 12.044C77.0458 11.78 76.6078 11.648 76.0558 11.648C75.5158 11.648 75.1018 11.75 74.8138 11.954C74.5258 12.158 74.3818 12.428 74.3818 12.764C74.3818 13.028 74.4778 13.25 74.6698 13.43C74.8618 13.61 75.0958 13.754 75.3718 13.862C75.6478 13.958 76.0558 14.084 76.5958 14.24C77.3158 14.432 77.9038 14.63 78.3598 14.834C78.8278 15.026 79.2298 15.314 79.5658 15.698C79.9018 16.082 80.0758 16.592 80.0878 17.228C80.0878 17.792 79.9318 18.296 79.6198 18.74C79.3078 19.184 78.8638 19.532 78.2878 19.784C77.7238 20.036 77.0578 20.162 76.2898 20.162ZM84.3571 18.344H88.5871V20H82.3051V7.49H84.3571V18.344ZM94.6051 20.162C93.6691 20.162 92.8231 19.952 92.0671 19.532C91.3111 19.1 90.7171 18.5 90.2851 17.732C89.8531 16.952 89.6371 16.052 89.6371 15.032C89.6371 14.024 89.8591 13.13 90.3031 12.35C90.7471 11.57 91.3531 10.97 92.1211 10.55C92.8891 10.13 93.7471 9.92 94.6951 9.92C95.6431 9.92 96.5011 10.13 97.2691 10.55C98.0371 10.97 98.6431 11.57 99.0871 12.35C99.5311 13.13 99.7531 14.024 99.7531 15.032C99.7531 16.04 99.5251 16.934 99.0691 17.714C98.6131 18.494 97.9891 19.1 97.1971 19.532C96.4171 19.952 95.5531 20.162 94.6051 20.162ZM94.6051 18.38C95.1331 18.38 95.6251 18.254 96.0811 18.002C96.5491 17.75 96.9271 17.372 97.2151 16.868C97.5031 16.364 97.6471 15.752 97.6471 15.032C97.6471 14.312 97.5091 13.706 97.2331 13.214C96.9571 12.71 96.5911 12.332 96.1351 12.08C95.6791 11.828 95.1871 11.702 94.6591 11.702C94.1311 11.702 93.6391 11.828 93.1831 12.08C92.7391 12.332 92.3851 12.71 92.1211 13.214C91.8571 13.706 91.7251 14.312 91.7251 15.032C91.7251 16.1 91.9951 16.928 92.5351 17.516C93.0871 18.092 93.7771 18.38 94.6051 18.38ZM101.098 14.996C101.098 14 101.302 13.118 101.71 12.35C102.13 11.582 102.694 10.988 103.402 10.568C104.122 10.136 104.914 9.92 105.778 9.92C106.558 9.92 107.236 10.076 107.812 10.388C108.4 10.688 108.868 11.066 109.216 11.522V10.082H111.286V20H109.216V18.524C108.868 18.992 108.394 19.382 107.794 19.694C107.194 20.006 106.51 20.162 105.742 20.162C104.89 20.162 104.11 19.946 103.402 19.514C102.694 19.07 102.13 18.458 101.71 17.678C101.302 16.886 101.098 15.992 101.098 14.996ZM109.216 15.032C109.216 14.348 109.072 13.754 108.784 13.25C108.508 12.746 108.142 12.362 107.686 12.098C107.23 11.834 106.738 11.702 106.21 11.702C105.682 11.702 105.19 11.834 104.734 12.098C104.278 12.35 103.906 12.728 103.618 13.232C103.342 13.724 103.204 14.312 103.204 14.996C103.204 15.68 103.342 16.28 103.618 16.796C103.906 17.312 104.278 17.708 104.734 17.984C105.202 18.248 105.694 18.38 106.21 18.38C106.738 18.38 107.23 18.248 107.686 17.984C108.142 17.72 108.508 17.336 108.784 16.832C109.072 16.316 109.216 15.716 109.216 15.032ZM118.985 9.92C119.765 9.92 120.461 10.082 121.073 10.406C121.697 10.73 122.183 11.21 122.531 11.846C122.879 12.482 123.053 13.25 123.053 14.15V20H121.019V14.456C121.019 13.568 120.797 12.89 120.353 12.422C119.909 11.942 119.303 11.702 118.535 11.702C117.767 11.702 117.155 11.942 116.699 12.422C116.255 12.89 116.033 13.568 116.033 14.456V20H113.981V10.082H116.033V11.216C116.369 10.808 116.795 10.49 117.311 10.262C117.839 10.034 118.397 9.92 118.985 9.92Z" fill="black"/>
<rect width="27" height="27" rx="13.5" fill="#1577E5"/>
<path d="M9.99 9.578L9 7.04H14.184C15.264 7.04 16.158 7.19 16.866 7.49C17.574 7.778 18.102 8.27 18.45 8.966C18.798 9.662 18.972 10.61 18.972 11.81C18.972 13.43 18.594 14.612 17.838 15.356C17.082 16.088 15.93 16.466 14.382 16.49V13.754C14.658 13.622 14.862 13.4 14.994 13.088C15.138 12.764 15.21 12.326 15.21 11.774C15.21 11.162 15.156 10.7 15.048 10.388C14.952 10.076 14.778 9.866 14.526 9.758C14.286 9.638 13.944 9.578 13.5 9.578H9.99ZM9.99 10.478H13.5V20H9.99V10.478Z" fill="white"/>
</svg>
